<svg width="123" height="159" viewBox="0 0 123 159" fill="none" xmlns="http://www.w3.org/2000/svg">
<path fill-rule="evenodd" clip-rule="evenodd" d="M68.869 150.668L68.8735 150.663C74.4675 144.955 79.9788 139.332 85.2189 133.731L2.49917 45.3678C0.872754 51.0482 0 57.0608 0 63.2833C0 95.4337 26.0211 121.985 54.1264 150.663L54.1323 150.669C56.5777 153.164 59.0389 155.676 61.5 158.208C63.9616 155.675 66.4232 153.163 68.869 150.668ZM3.91213 41.0242L87.9457 130.791C107.727 109.259 123 87.9141 123 63.2833C123 28.3329 95.4656 0 61.5 0C35.1474 0 12.666 17.0554 3.91213 41.0242ZM82 56C82 67.0457 73.0457 76 62 76C50.9543 76 42 67.0457 42 56C42 44.9543 50.9543 36 62 36C73.0457 36 82 44.9543 82 56Z" fill="#062A3B"/>
<path fill-rule="evenodd" clip-rule="evenodd" d="M68.869 150.668L68.8735 150.663C74.5388 144.882 80.1193 139.188 85.4191 133.517L2.65789 44.8226C0.929601 50.663 0 56.8614 0 63.2833C0 95.4337 26.021 121.985 54.1264 150.663L54.1264 150.663L54.1323 150.669C56.5777 153.164 59.0389 155.676 61.5 158.208C63.9616 155.675 66.4232 153.163 68.869 150.668Z" fill="#72BA1B"/>
</svg>
